<?xml version="1.0" encoding="UTF-8"?>
<svg id="Layer_1" data-name="Layer 1" xmlns="http://www.w3.org/2000/svg" version="1.1" viewBox="0 0 110 135">
  <defs>
    <style>
      .cls-1 {
        fill: #ffffff;
        stroke-width: 0px;
      }
    </style>
  </defs>
  <path class="cls-1" d="M71,38h8c1.1,0,2-.9,2-2v-16c0-1.1-.9-2-2-2h-12c-12.13,0-22,9.87-22,22v10.16h-14c-1.1,0-2,.9-2,2v15.84c0,1.1.9,2,2,2h12.61v30c0,1.1.9,2,2,2h16.7c1.1,0,2-.9,2-2v-30h10.52c.91,0,1.71-.61,1.94-1.5l4.17-16c.16-.6.03-1.24-.35-1.73-.38-.49-.96-.78-1.58-.78h-14v-6c0-3.31,2.69-6,6-6h-.01ZM63,54h13.41l-3.13,12h-10.98c-1.1,0-2,.9-2,2v30h-12.7v-30c0-1.1-.9-2-2-2h-12.61v-11.84h14c1.1,0,2-.9,2-2v-12.16c0-9.92,8.07-18,18-18h10v12h-6c-5.51,0-10,4.49-10,10v8c0,1.1.9,2,2,2h0Z"/>
  <path class="cls-1" d="M74.91,20.29c-7.8-.76-29.11-.25-27.74,28.28.09,1.85-1.41,3.4-3.26,3.4h-8.91c-1.68,0-3.09,1.28-3.25,2.95l-.87,8.98c-.18,1.88,1.26,3.52,3.14,3.58l8.26.28c1.76.06,3.16,1.5,3.16,3.27v24.46c0,1.77,1.4,3.21,3.17,3.27l9.82.3c1.85.06,3.38-1.44,3.37-3.29l-.19-24.35c-.01-1.81,1.45-3.29,3.27-3.29h7.1c1.48,0,2.78-1,3.16-2.43l2.44-9.2c.56-2.12-1.08-4.18-3.27-4.1l-6.68.23c-1.81.06-3.33-1.36-3.38-3.17-.16-4.98-.04-13.91,9.93-14.27,1.8-.06,4.2-1.62,4.11-3.43l-.43-8.37c-.08-1.62-1.33-2.93-2.94-3.09Z"/>
</svg>