<?xml version="1.0" encoding="UTF-8"?>
<svg id="Layer_1" data-name="Layer 1" xmlns="http://www.w3.org/2000/svg" version="1.1" viewBox="0 0 110 135">
  <defs>
    <style>
      .cls-1 {
        fill: #000;
        stroke-width: 0px;
      }
    </style>
  </defs>
  <path class="cls-1" d="M71.67,18.33h-33.34c-13.78,0-25,11.22-25,25v33.33c0,13.79,11.22,25,25,25h33.33c13.79,0,25-11.21,25-25v-33.33c0-13.78-11.21-25-25-25h0ZM88.33,76.67c0,9.19-7.48,16.67-16.67,16.67h-33.33c-9.19,0-16.67-7.48-16.67-16.67v-33.33c0-9.19,7.48-16.67,16.67-16.67h33.33c9.19,0,16.67,7.48,16.67,16.67v33.34ZM55,39.17c-11.49,0-20.83,9.35-20.83,20.83s9.35,20.83,20.83,20.83,20.83-9.35,20.83-20.83-9.34-20.83-20.83-20.83ZM55,72.5c-6.89,0-12.5-5.61-12.5-12.5s5.61-12.5,12.5-12.5,12.5,5.61,12.5,12.5-5.61,12.5-12.5,12.5ZM78.79,36.21c.75.79,1.21,1.88,1.21,2.96s-.46,2.17-1.21,2.96c-.79.75-1.88,1.21-2.96,1.21s-2.17-.46-2.96-1.21c-.75-.79-1.21-1.88-1.21-2.96s.46-2.17,1.21-2.96c1.58-1.54,4.33-1.54,5.92,0h0Z"/>
</svg>