<?xml version="1.0" encoding="UTF-8"?>
<svg id="Layer_1" data-name="Layer 1" xmlns="http://www.w3.org/2000/svg" version="1.1" viewBox="0 0 110 135">
  <defs>
    <style>
      .cls-1 {
        fill: #ffffff;
        stroke-width: 0px;
      }
    </style>
  </defs>
  <path class="cls-1" d="M56.23,51.01l18.97-23.06c.27-.39.72-.65,1.23-.65h8.45c.34,0,.67.12.95.35.64.52.73,1.47.2,2.11l-24.11,29.32,22.07,31.26c.48.68.31,1.61-.36,2.09-.26.18-.56.27-.86.27h-11.48c-.54,0-1.01-.28-1.28-.71l-16.23-23-18.97,23.06c-.27.39-.72.65-1.23.65h-8.45c-.34,0-.67-.12-.95-.35-.64-.52-.73-1.47-.2-2.11l24.11-29.32-22.07-31.26c-.48-.68-.31-1.61.36-2.09.26-.18.56-.27.86-.27h11.48c.54,0,1.01.29,1.28.71l16.23,23h0Z"/>
</svg>