<?xml version="1.0" encoding="UTF-8"?>
<svg version="1.1" xmlns="http://www.w3.org/2000/svg" width="75" height="75">
<path d="M0 0 C7.90306011 5.62793675 13.74359377 13.35967397 16.13671875 22.828125 C18.00417245 34.45344489 16.59580353 44.43267525 10.0078125 54.21484375 C3.70005872 62.36764434 -4.16086044 67.85810045 -14.4296875 69.52734375 C-25.3308729 70.62708503 -35.22672988 68.85503169 -44.2421875 62.40234375 C-52.42387418 55.45310715 -57.78883915 46.72887705 -58.7421875 36.015625 C-59.11821351 24.3940712 -56.88842836 15.48792612 -49.3359375 6.52734375 C-36.2214503 -7.23211823 -16.35094326 -9.91045918 0 0 Z " fill="#073D71" transform="translate(58.4296875,5.47265625)"/>
<path d="M0 0 C6.44151941 2.87839548 11.99251641 8.83222861 14.609375 15.38671875 C15.61182801 22.78855203 14.5267478 29.02901535 10.609375 35.38671875 C6.41148067 40.63408666 1.38866594 43.88315239 -5.29296875 44.7734375 C-11.75778927 45.00985591 -17.22512196 44.51450912 -22.390625 40.38671875 C-27.74839381 34.76584522 -30.40937669 29.23942383 -30.703125 21.44921875 C-30.55906924 15.45289788 -29.02685731 11.23824478 -25.015625 6.69921875 C-17.08401811 -0.28814923 -10.76378172 -2.76129694 0 0 Z " fill="#F2D49C" transform="translate(45.390625,14.61328125)"/>
<path d="M0 0 C7.90306011 5.62793675 13.74359377 13.35967397 16.13671875 22.828125 C18.00417245 34.45344489 16.59580353 44.43267525 10.0078125 54.21484375 C3.70005872 62.36764434 -4.16086044 67.85810045 -14.4296875 69.52734375 C-25.3308729 70.62708503 -35.22672988 68.85503169 -44.2421875 62.40234375 C-52.42387418 55.45310715 -57.78883915 46.72887705 -58.7421875 36.015625 C-59.11821351 24.3940712 -56.88842836 15.48792612 -49.3359375 6.52734375 C-36.2214503 -7.23211823 -16.35094326 -9.91045918 0 0 Z M-48.4296875 8.52734375 C-55.19144093 17.38234874 -57.55979958 26.47429637 -56.4296875 37.52734375 C-53.42139465 49.46747516 -46.97744973 57.65416311 -36.67578125 64.234375 C-29.37063958 68.43959569 -20.50559078 68.80620769 -12.421875 66.76953125 C-2.74784581 63.42184267 5.98840397 57.85101082 10.8828125 48.58984375 C15.12565211 39.08442625 16.21628523 29.47277792 12.6953125 19.52734375 C11.52071654 16.53429923 10.36535504 14.21990757 8.5703125 11.52734375 C7.9103125 11.52734375 7.2503125 11.52734375 6.5703125 11.52734375 C6.5703125 12.18734375 6.5703125 12.84734375 6.5703125 13.52734375 C5.5803125 13.85734375 4.5903125 14.18734375 3.5703125 14.52734375 C2.83707454 16.54242733 2.83707454 16.54242733 2.5703125 18.52734375 C4.5503125 18.85734375 6.5303125 19.18734375 8.5703125 19.52734375 C8.10625 20.42453125 8.10625 20.42453125 7.6328125 21.33984375 C6.46821546 23.61691147 6.46821546 23.61691147 5.5703125 26.52734375 C4.9103125 26.52734375 4.2503125 26.52734375 3.5703125 26.52734375 C3.9209375 25.90859375 4.2715625 25.28984375 4.6328125 24.65234375 C4.9421875 23.95109375 5.2515625 23.24984375 5.5703125 22.52734375 C5.0753125 21.53734375 5.0753125 21.53734375 4.5703125 20.52734375 C3.5803125 20.52734375 2.5903125 20.52734375 1.5703125 20.52734375 C1.5703125 19.53734375 1.5703125 18.54734375 1.5703125 17.52734375 C0.9103125 17.52734375 0.2503125 17.52734375 -0.4296875 17.52734375 C-0.4296875 18.51734375 -0.4296875 19.50734375 -0.4296875 20.52734375 C-0.8421875 19.99625 -1.2546875 19.46515625 -1.6796875 18.91796875 C-6.60970091 12.88750592 -10.70558567 9.08312044 -18.6171875 8.15234375 C-25.06003829 7.91805827 -29.4499722 8.04559998 -34.4296875 12.52734375 C-35.3165625 13.16671875 -36.2034375 13.80609375 -37.1171875 14.46484375 C-40.42259734 17.41291199 -42.03936134 20.35636526 -43.4296875 24.52734375 C-43.7596875 23.53734375 -44.0896875 22.54734375 -44.4296875 21.52734375 C-45.4196875 22.84734375 -46.4096875 24.16734375 -47.4296875 25.52734375 C-48.7496875 25.19734375 -50.0696875 24.86734375 -51.4296875 24.52734375 C-51.0996875 24.52734375 -50.7696875 24.52734375 -50.4296875 24.52734375 C-49.09400729 24.20354249 -47.76045739 23.87076824 -46.4296875 23.52734375 C-46.4296875 22.53734375 -46.4296875 21.54734375 -46.4296875 20.52734375 C-45.7696875 20.52734375 -45.1096875 20.52734375 -44.4296875 20.52734375 C-45.4196875 17.55734375 -46.4096875 14.58734375 -47.4296875 11.52734375 C-45.15104167 12.11328125 -42.87239583 12.69921875 -40.59375 13.28515625 C-39.87960938 13.36507813 -39.16546875 13.445 -38.4296875 13.52734375 C-37.7696875 12.86734375 -37.1096875 12.20734375 -36.4296875 11.52734375 C-37.0896875 11.52734375 -37.7496875 11.52734375 -38.4296875 11.52734375 C-39.4296875 9.52734375 -40.4296875 7.52734375 -41.4296875 5.52734375 C-40.7696875 5.52734375 -40.1096875 5.52734375 -39.4296875 5.52734375 C-38.7696875 6.84734375 -38.1096875 8.16734375 -37.4296875 9.52734375 C-36.1096875 9.52734375 -34.7896875 9.52734375 -33.4296875 9.52734375 C-33.91453026 4.88147483 -33.91453026 4.88147483 -35.4296875 0.52734375 C-40.8733267 0.52734375 -44.65659053 4.89507777 -48.4296875 8.52734375 Z " fill="#1B7232" transform="translate(58.4296875,5.47265625)"/>
<path d="M0 0 C0.66 0.33 1.32 0.66 2 1 C3.79068242 1.10232471 5.58265845 1.18272713 7.375 1.25 C12.63851881 1.71786834 12.63851881 1.71786834 15.5625 4 C18.42299388 9.96972637 19.67430468 15.47021174 18 22 C15.69 22 13.38 22 11 22 C11.66 21.01 12.32 20.02 13 19 C12.01 18.67 11.02 18.34 10 18 C9.62875 18.825 9.2575 19.65 8.875 20.5 C8.25625 21.325 7.6375 22.15 7 23 C3.8125 23.3125 3.8125 23.3125 1 23 C1 22.34 1 21.68 1 21 C1.66 20.67 2.32 20.34 3 20 C3 19.01 3 18.02 3 17 C2.34 16.67 1.68 16.34 1 16 C0.67 17.98 0.34 19.96 0 22 C-2.31 22 -4.62 22 -7 22 C-6.34 21.67 -5.68 21.34 -5 21 C-5 20.34 -5 19.68 -5 19 C-5.515625 19.66 -6.03125 20.32 -6.5625 21 C-9.79995755 23.65637543 -11.92552281 23.31342132 -16 23 C-15.67 22.01 -15.34 21.02 -15 20 C-14.34 19.67 -13.68 19.34 -13 19 C-12.67 18.01 -12.34 17.02 -12 16 C-14.31 16 -16.62 16 -19 16 C-19.66 14.68 -20.32 13.36 -21 12 C-18.18323574 7.01649401 -16.43316769 5.55233363 -11 4 C-10.175 3.29875 -9.35 2.5975 -8.5 1.875 C-5.41775611 -0.43668292 -3.76846536 -0.41871837 0 0 Z " fill="#A06F5D" transform="translate(38,23)"/>
<path d="M0 0 C1.85776765 3.13498292 2.20140476 5.37471432 2 9 C-0.475 8.505 -0.475 8.505 -3 8 C-3.33 7.01 -3.66 6.02 -4 5 C-4.66 5 -5.32 5 -6 5 C-5.505 5.61875 -5.01 6.2375 -4.5 6.875 C-3 9 -3 9 -3 11 C-2.34 11.33 -1.68 11.66 -1 12 C-5.25061356 13.41687119 -7.71851625 12.19320039 -12 11 C-11.01 13.97 -10.02 16.94 -9 20 C-9.66 20 -10.32 20 -11 20 C-11.33 21.32 -11.66 22.64 -12 24 C-13.32 23.67 -14.64 23.34 -16 23 C-15.67 23.66 -15.34 24.32 -15 25 C-11.38144425 24.37611108 -10.8290723 23.8290723 -8 21 C-8 26.94 -8 32.88 -8 39 C-9.485 39.495 -9.485 39.495 -11 40 C-10.67 41.32 -10.34 42.64 -10 44 C-11.65 44.66 -13.3 45.32 -15 46 C-15 46.66 -15 47.32 -15 48 C-15.66 48 -16.32 48 -17 48 C-21.28934162 38.27238596 -22.75119681 29.59787063 -19.4375 19.3125 C-16.30587917 11.67090411 -9.31460883 0 0 0 Z " fill="#11426F" transform="translate(23,6)"/>
<path d="M0 0 C0 2.87628285 -0.28765194 5.22184257 -1 8 C-1.66 8.66 -2.32 9.32 -3 10 C-6.53571429 9.46428571 -6.53571429 9.46428571 -8 8 C-8.125 5.5 -8.125 5.5 -8 3 C-7.67 2.67 -7.34 2.34 -7 2 C-7.99 1.67 -8.98 1.34 -10 1 C-9.979375 1.9075 -9.95875 2.815 -9.9375 3.75 C-10 7 -10 7 -11 11 C-7.37 11 -3.74 11 0 11 C0.268125 9.865625 0.53625 8.73125 0.8125 7.5625 C1.204375 6.386875 1.59625 5.21125 2 4 C2.99 3.67 3.98 3.34 5 3 C5.66 3.33 6.32 3.66 7 4 C6.67 6.64 6.34 9.28 6 12 C5.34 11.67 4.68 11.34 4 11 C4 9.35 4 7.7 4 6 C3.34 7.98 2.68 9.96 2 12 C2.66 12 3.32 12 4 12 C4 12.66 4 13.32 4 14 C3.47148438 13.84144531 2.94296875 13.68289063 2.3984375 13.51953125 C-3.85854569 12.16419124 -10.70486423 11.89341668 -16.5 14.6875 C-17.325 15.450625 -18.15 16.21375 -19 17 C-19.886875 17.763125 -20.77375 18.52625 -21.6875 19.3125 C-26.52986496 24.94011333 -27.52909457 30.8389899 -28 38 C-28.33 38 -28.66 38 -29 38 C-29 34.37 -29 30.74 -29 27 C-29.99 27.99 -30.98 28.98 -32 30 C-34.13745922 29.74853421 -35.45925779 29.54074221 -37 28 C-37.04063832 26.33382885 -37.042721 24.66611905 -37 23 C-36.34 24.32 -35.68 25.64 -35 27 C-34.01 27 -33.02 27 -32 27 C-31.67 26.01 -31.34 25.02 -31 24 C-30.34 24 -29.68 24 -29 24 C-29.7425 22.6078125 -29.7425 22.6078125 -30.5 21.1875 C-32 18 -32 18 -32 15 C-29 15 -26 15 -23 15 C-23.7425 14.071875 -23.7425 14.071875 -24.5 13.125 C-26 11 -26 11 -26 9 C-25.34 9 -24.68 9 -24 9 C-23 10 -22 11 -21 12 C-20.34 12 -19.68 12 -19 12 C-19.48578543 8.87709365 -19.9986012 6.00419641 -21 3 C-13.92444501 -0.0017506 -7.62951555 -0.34855655 0 0 Z " fill="#15466B" transform="translate(43,2)"/>
<path d="M0 0 C4.35411179 1.97397232 6.63041729 4.43414299 9.53125 8.26171875 C8.86593262 8.26582764 8.20061523 8.26993652 7.51513672 8.27416992 C4.47796023 8.30722295 1.44275863 8.37787909 -1.59375 8.44921875 C-3.16382813 8.45791992 -3.16382813 8.45791992 -4.765625 8.46679688 C-11.66003735 8.66315672 -14.53754569 9.50875074 -19.46875 14.26171875 C-22.2421875 14.96875 -22.2421875 14.96875 -24.84375 15.07421875 C-25.71773437 15.12191406 -26.59171875 15.16960938 -27.4921875 15.21875 C-28.14445312 15.23292969 -28.79671875 15.24710938 -29.46875 15.26171875 C-28.85450184 9.88704733 -26.58951989 7.19468828 -22.66015625 3.61328125 C-15.80394558 -1.74588526 -8.31633154 -2.48700421 0 0 Z " fill="#F4C872" transform="translate(45.46875,14.73828125)"/>
<path d="M0 0 C0.495 0.99 0.495 0.99 1 2 C0.04480469 2.02578125 -0.91039062 2.0515625 -1.89453125 2.078125 C-14.28854892 2.62183066 -24.96372216 4.75275847 -34 14 C-40.69913311 22.94176136 -43.13599226 31.88944158 -42 43 C-40.39261359 49.37983266 -37.84093438 54.70215948 -34 60 C-33.67 60.99 -33.34 61.98 -33 63 C-31.1492838 64.08453808 -31.1492838 64.08453808 -29 65 C-27.07971382 66.23531812 -25.18432695 67.50214589 -23.29296875 68.78125 C-17.3371107 71.94688494 -11.62757994 72.27126571 -5.0625 72.125 C-4.28326172 72.11597656 -3.50402344 72.10695313 -2.70117188 72.09765625 C-0.80064553 72.07433691 1.09972008 72.03847586 3 72 C3 72.66 3 73.32 3 74 C-6.71064074 76.87117503 -16.99029847 75.25844238 -26 71 C-34.72540404 65.86821011 -41.77724709 57.44089309 -44.5625 47.60546875 C-46.43216111 36.47096912 -45.48885381 26.17080192 -39.45703125 16.53515625 C-29.28907168 2.55130339 -16.54461553 -0.80378699 0 0 Z " fill="#1C7331" transform="translate(45,0)"/>
<path d="M0 0 C2.5 0.125 2.5 0.125 3.5 1.125 C5.51964199 1.19744053 7.54167124 1.20877188 9.5625 1.1875 C10.66722656 1.17847656 11.77195312 1.16945312 12.91015625 1.16015625 C13.76480469 1.14855469 14.61945312 1.13695312 15.5 1.125 C15.995 4.095 15.995 4.095 16.5 7.125 C9.23030117 11.62835326 3.0508644 13.40704157 -5.5 12.125 C-10.26807344 10.61727854 -13.9543413 8.57990273 -16.5 4.125 C-15.51 4.125 -14.52 4.125 -13.5 4.125 C-13.17 3.135 -12.84 2.145 -12.5 1.125 C-11.86191406 1.13660156 -11.22382813 1.14820313 -10.56640625 1.16015625 C-9.74011719 1.16917969 -8.91382813 1.17820313 -8.0625 1.1875 C-6.82693359 1.20490234 -6.82693359 1.20490234 -5.56640625 1.22265625 C-2.93066062 1.0980936 -2.77995095 0.13899755 0 0 Z " fill="#F5CC77" transform="translate(36.5,46.875)"/>
<path d="M0 0 C0.33 0 0.66 0 1 0 C1 1.65 1 3.3 1 5 C1.66 5 2.32 5 3 5 C3.33 3.68 3.66 2.36 4 1 C4 1.66 4 2.32 4 3 C5.65 2.34 7.3 1.68 9 1 C9.33 2.32 9.66 3.64 10 5 C9.67 4.34 9.34 3.68 9 3 C7.35 3.66 5.7 4.32 4 5 C4 6.32 4 7.64 4 9 C5.32 9 6.64 9 8 9 C7.67 10.65 7.34 12.3 7 14 C6.34 14 5.68 14 5 14 C5 15.32 5 16.64 5 18 C4.01 18 3.02 18 2 18 C2 18.99 2 19.98 2 21 C0.0625 20.1875 0.0625 20.1875 -2 19 C-2.33 18.01 -2.66 17.02 -3 16 C-4.32 16 -5.64 16 -7 16 C-6.33131686 19.11332248 -6.33131686 19.11332248 -3.9375 20.1875 C-3.298125 20.455625 -2.65875 20.72375 -2 21 C-2 21.66 -2 22.32 -2 23 C-3.98 23 -5.96 23 -8 23 C-8 23.99 -8 24.98 -8 26 C-8.66 26 -9.32 26 -10 26 C-9.98839844 25.37351562 -9.97679687 24.74703125 -9.96484375 24.1015625 C-9.95582031 23.28429687 -9.94679687 22.46703125 -9.9375 21.625 C-9.92009766 20.40683594 -9.92009766 20.40683594 -9.90234375 19.1640625 C-9.85533666 16.95062858 -9.85533666 16.95062858 -11 15 C-10.21625 14.7525 -9.4325 14.505 -8.625 14.25 C-5.51754092 12.77025758 -5.33443493 12.05628646 -4 9 C-3.64679687 8.22140625 -3.29359375 7.4428125 -2.9296875 6.640625 C-2.58164062 5.85171875 -2.23359375 5.0628125 -1.875 4.25 C-1.34519531 3.05117188 -1.34519531 3.05117188 -0.8046875 1.828125 C-0.53914063 1.22484375 -0.27359375 0.6215625 0 0 Z " fill="#24496C" transform="translate(59,41)"/>
<path d="M0 0 C1.32 0.33 2.64 0.66 4 1 C3.67 1.33 3.34 1.66 3 2 C2.95936168 3.66617115 2.957279 5.33388095 3 7 C4.89179203 7.6814823 4.89179203 7.6814823 7 8 C7.66 7.34 8.32 6.68 9 6 C8.67801034 2.90073181 8.67801034 2.90073181 8 0 C15.04538396 0.33549447 20.24800286 1.79240801 26 6 C26.99 7.485 26.99 7.485 28 9 C26.68 10.32 25.36 11.64 24 13 C24 10.69 24 8.38 24 6 C23.01 6.99 22.02 7.98 21 9 C21.33 9 21.66 9 22 9 C22.33 12.63 22.66 16.26 23 20 C15.125 14.375 15.125 14.375 14 11 C13.34 11 12.68 11 12 11 C12.375 8.0625 12.375 8.0625 13 5 C13.66 4.67 14.32 4.34 15 4 C15 4.99 15 5.98 15 7 C15.66 5.68 16.32 4.36 17 3 C15.68 3 14.36 3 13 3 C12.01 5.31 11.02 7.62 10 10 C6.37 10 2.74 10 -1 10 C-1.33 8.68 -1.66 7.36 -2 6 C-1.34 6 -0.68 6 0 6 C0 5.34 0 4.68 0 4 C-0.66 3.67 -1.32 3.34 -2 3 C-1.34 3 -0.68 3 0 3 C0 2.01 0 1.02 0 0 Z " fill="#0A3D72" transform="translate(33,3)"/>
<path d="M0 0 C0.26554688 0.55171875 0.53109375 1.1034375 0.8046875 1.671875 C2.13882709 4.27039525 3.61258631 6.75122955 5.125 9.25 C5.93324219 10.58804688 5.93324219 10.58804688 6.7578125 11.953125 C7.16773438 12.62859375 7.57765625 13.3040625 8 14 C7.34 14 6.68 14 6 14 C5.01 16.97 4.02 19.94 3 23 C2.34 21.68 1.68 20.36 1 19 C-2.56206661 18.18129815 -2.56206661 18.18129815 -6 18 C-6.66 16.35 -7.32 14.7 -8 13 C-6.36587557 11.29159719 -5.13093906 10.06546953 -3 9 C-3 7.68 -3 6.36 -3 5 C-2.34 4.67 -1.68 4.34 -1 4 C-0.34786708 1.97536745 -0.34786708 1.97536745 0 0 Z " fill="#0B3F71" transform="translate(15,41)"/>
<path d="M0 0 C1.65 0.33 3.3 0.66 5 1 C4.67 1.66 4.34 2.32 4 3 C3.34 3 2.68 3 2 3 C2.20625 3.7425 2.4125 4.485 2.625 5.25 C3.04408751 8.32330841 2.61949011 9.42786866 1 12 C1.66 12 2.32 12 3 12 C3.66 10.35 4.32 8.7 5 7 C6.32 7.33 7.64 7.66 9 8 C9.33 10.97 9.66 13.94 10 17 C2.1444948 16.66572318 -3.52134035 12.57168629 -9.0625 7.1875 C-11 5 -11 5 -11 4 C-9.02 4 -7.04 4 -5 4 C-4.34 5.32 -3.68 6.64 -3 8 C-2.01 5.36 -1.02 2.72 0 0 Z " fill="#043B72" transform="translate(21,55)"/>
<path d="M0 0 C0.66 0 1.32 0 2 0 C3.64826111 2.96687001 4.44271087 5.65626525 5 9 C4.45730469 9.37511719 3.91460938 9.75023437 3.35546875 10.13671875 C2.64003906 10.64847656 1.92460937 11.16023438 1.1875 11.6875 C0.47980469 12.18636719 -0.22789063 12.68523438 -0.95703125 13.19921875 C-5.37823632 17.09630391 -6.43621161 21.09114995 -7.1875 26.8125 C-7.34605469 27.97394531 -7.50460937 29.13539062 -7.66796875 30.33203125 C-7.77753906 31.21246094 -7.88710937 32.09289063 -8 33 C-8.33 33 -8.66 33 -9 33 C-9 29.37 -9 25.74 -9 22 C-9.99 22.99 -10.98 23.98 -12 25 C-14.13745922 24.74853421 -15.45925779 24.54074221 -17 23 C-17.04063832 21.33382885 -17.042721 19.66611905 -17 18 C-16.34 19.32 -15.68 20.64 -15 22 C-14.01 22 -13.02 22 -12 22 C-11.67 21.01 -11.34 20.02 -11 19 C-10.34 19 -9.68 19 -9 19 C-9.7425 17.6078125 -9.7425 17.6078125 -10.5 16.1875 C-12 13 -12 13 -12 10 C-9 10 -6 10 -3 10 C-3.7425 9.071875 -3.7425 9.071875 -4.5 8.125 C-6 6 -6 6 -6 4 C-5.34 4 -4.68 4 -4 4 C-3 5 -2 6 -1 7 C-0.34 7 0.32 7 1 7 C0.67 4.69 0.34 2.38 0 0 Z " fill="#40605F" transform="translate(23,7)"/>
<path d="M0 0 C0.66 0.99 1.32 1.98 2 3 C-5.30270247 7.52379799 -11.41930324 9.15532523 -20 8 C-22.59671792 7.22930463 -24.60771917 6.30488045 -27 5 C-27 4.01 -27 3.02 -27 2 C-18.09 2 -9.18 2 0 2 C0 1.34 0 0.68 0 0 Z " fill="#F5C256" transform="translate(51,51)"/>
<path d="M0 0 C0.66 0 1.32 0 2 0 C2.33 1.98 2.66 3.96 3 6 C3.66 5.01 4.32 4.02 5 3 C5.99 3 6.98 3 8 3 C9.6875 5.5 9.6875 5.5 11 8 C10.360625 8.78375 9.72125 9.5675 9.0625 10.375 C7.01857687 12.79539281 7.01857687 12.79539281 6 15 C7.98 15 9.96 15 12 15 C12 19.22528092 11.74375671 20.04518508 9 23 C8.34 23 7.68 23 7 23 C7.33 21.02 7.66 19.04 8 17 C7.01 17 6.02 17 5 17 C5 16.01 5 15.02 5 14 C4.34 14 3.68 14 3 14 C3.33 15.65 3.66 17.3 4 19 C1.32196738 15.89641699 0.45372176 13.46568798 -0.1875 9.4375 C-0.34605469 8.48746094 -0.50460938 7.53742187 -0.66796875 6.55859375 C-1 4 -1 4 -1 1 C-0.67 0.67 -0.34 0.34 0 0 Z " fill="#2B5066" transform="translate(55,9)"/>
<path d="M0 0 C2.25062454 0.03309742 4.50073465 0.10257876 6.75 0.1875 C8.00296875 0.22230469 9.2559375 0.25710937 10.546875 0.29296875 C14 1 14 1 16.37109375 3.2734375 C19.29963829 8.17541373 20.22142325 12.89647915 19.625 18.5625 C19.315625 19.7690625 19.315625 19.7690625 19 21 C16.69 21 14.38 21 12 21 C12.66 20.01 13.32 19.02 14 18 C13.67 17.01 13.34 16.02 13 15 C12.34 14.67 11.68 14.34 11 14 C12.32 13.67 13.64 13.34 15 13 C15.85650653 10.19954954 15.85650653 10.19954954 16 7 C14.75609295 4.42044581 14.75609295 4.42044581 12 3 C9.66104563 2.85249837 7.45425426 2.93594606 5.12109375 3.15234375 C3 3 3 3 1.22265625 1.50390625 C0.61744141 0.75947266 0.61744141 0.75947266 0 0 Z " fill="#864F3C" transform="translate(37,24)"/>
<path d="M0 0 C-0.165 0.7425 -0.33 1.485 -0.5 2.25 C-1.11925696 5.19006578 -1.11925696 5.19006578 -1 9 C1.31 9.33 3.62 9.66 6 10 C5.67 11.32 5.34 12.64 5 14 C4.360625 14.103125 3.72125 14.20625 3.0625 14.3125 C2.0415625 14.6528125 2.0415625 14.6528125 1 15 C0.67 15.99 0.34 16.98 0 18 C-1.9375 17.25 -1.9375 17.25 -4 16 C-5.05116043 12.9871198 -5.19315616 10.04878095 -5.25 6.875 C-5.27578125 6.00617187 -5.3015625 5.13734375 -5.328125 4.2421875 C-5.21984375 3.50226562 -5.1115625 2.76234375 -5 2 C-2 0 -2 0 0 0 Z " fill="#FAF2DF" transform="translate(20,29)"/>
<path d="M0 0 C0.90105469 0.00902344 1.80210938 0.01804687 2.73046875 0.02734375 C3.41753906 0.03894531 4.10460938 0.05054687 4.8125 0.0625 C3.8225 0.5575 3.8225 0.5575 2.8125 1.0625 C2.5959375 1.990625 2.5959375 1.990625 2.375 2.9375 C1.68140125 5.55776194 0.9344077 6.38999196 -1.1875 8.0625 C-3.66796875 8.57421875 -3.66796875 8.57421875 -6.375 8.75 C-7.27605469 8.81574219 -8.17710938 8.88148437 -9.10546875 8.94921875 C-10.13607422 9.00529297 -10.13607422 9.00529297 -11.1875 9.0625 C-10.64026317 5.68787285 -10.1326 3.98015 -8.1875 1.0625 C-5.17259443 0.05753148 -3.14568308 -0.04085303 0 0 Z " fill="#FED486" transform="translate(27.1875,20.9375)"/>
<path d="M0 0 C0.75410156 0.09990234 1.50820313 0.19980469 2.28515625 0.30273438 C4.14917753 0.55048404 6.01219288 0.80578057 7.875 1.0625 C7.875 1.3925 7.875 1.7225 7.875 2.0625 C5.565 2.3925 3.255 2.7225 0.875 3.0625 C1.205 3.7225 1.535 4.3825 1.875 5.0625 C0.885 5.0625 -0.105 5.0625 -1.125 5.0625 C-1.125 5.7225 -1.125 6.3825 -1.125 7.0625 C-0.465 7.0625 0.195 7.0625 0.875 7.0625 C0.875 8.7125 0.875 10.3625 0.875 12.0625 C-0.445 12.0625 -1.765 12.0625 -3.125 12.0625 C-3.125 9.7525 -3.125 7.4425 -3.125 5.0625 C-4.445 5.0625 -5.765 5.0625 -7.125 5.0625 C-7.785 6.3825 -8.445 7.7025 -9.125 9.0625 C-9.785 9.0625 -10.445 9.0625 -11.125 9.0625 C-11.01137738 7.5824159 -10.88377092 6.10339926 -10.75 4.625 C-10.68039063 3.80128906 -10.61078125 2.97757813 -10.5390625 2.12890625 C-10.40242188 1.44699219 -10.26578125 0.76507813 -10.125 0.0625 C-6.87932383 -1.56033808 -3.48660376 -0.48475234 0 0 Z " fill="#245460" transform="translate(33.125,57.9375)"/>
<path d="M0 0 C0 3 0 3 -1 5 C0.32 5 1.64 5 3 5 C3.33 5.66 3.66 6.32 4 7 C4.99 7.66 5.98 8.32 7 9 C6.01 9.33 5.02 9.66 4 10 C4 10.66 4 11.32 4 12 C2.68 11.34 1.36 10.68 0 10 C0 9.34 0 8.68 0 8 C-1.32 8 -2.64 8 -4 8 C-3.33131686 11.11332248 -3.33131686 11.11332248 -0.9375 12.1875 C-0.298125 12.455625 0.34125 12.72375 1 13 C1 13.66 1 14.32 1 15 C-0.98 15 -2.96 15 -5 15 C-5 15.99 -5 16.98 -5 18 C-5.66 18 -6.32 18 -7 18 C-6.98839844 17.37351562 -6.97679687 16.74703125 -6.96484375 16.1015625 C-6.95582031 15.28429687 -6.94679687 14.46703125 -6.9375 13.625 C-6.92009766 12.40683594 -6.92009766 12.40683594 -6.90234375 11.1640625 C-6.85533666 8.95062858 -6.85533666 8.95062858 -8 7 C-7.21625 6.7525 -6.4325 6.505 -5.625 6.25 C-2.64259316 4.82980627 -2.1589951 3.99407067 -1 1 C-0.67 0.67 -0.34 0.34 0 0 Z " fill="#365F5E" transform="translate(56,49)"/>
<path d="M0 0 C5.28 0 10.56 0 16 0 C20.28670939 6.02818509 20.474377 10.71304215 20 18 C19.67 18 19.34 18 19 18 C19 14.7 19 11.4 19 8 C18.01 8 17.02 8 16 8 C16 9.98 16 11.96 16 14 C15.67 14 15.34 14 15 14 C14.87882812 13.37351562 14.75765625 12.74703125 14.6328125 12.1015625 C14.46523438 11.28429688 14.29765625 10.46703125 14.125 9.625 C13.96257813 8.81289063 13.80015625 8.00078125 13.6328125 7.1640625 C13.13341068 4.81326077 13.13341068 4.81326077 11 3 C8.33757179 2.53709779 8.33757179 2.53709779 5.375 2.375 C3.87066406 2.26285156 3.87066406 2.26285156 2.3359375 2.1484375 C1.56507812 2.09945313 0.79421875 2.05046875 0 2 C0 1.34 0 0.68 0 0 Z " fill="#E8CE99" transform="translate(40,23)"/>
<path d="M0 0 C3.04328042 1.03246106 5.25671726 2.27872455 8 4 C4.45698453 5.18100516 2.08795986 4.89011411 -1.625 4.5625 C-7.1157749 4.11822568 -12.49435966 3.90507517 -18 4 C-12.8925563 -1.33960023 -7.09002333 -0.63554342 0 0 Z " fill="#E4B745" transform="translate(43,14)"/>
<path d="M0 0 C0.33 0.99 0.66 1.98 1 3 C3.41645782 3.16687448 3.41645782 3.16687448 6 3 C6.66 2.34 7.32 1.68 8 1 C8.99 1.99 9.98 2.98 11 4 C10.34 4 9.68 4 9 4 C9.33 5.32 9.66 6.64 10 8 C8.35 8.66 6.7 9.32 5 10 C5 10.66 5 11.32 5 12 C4.34 12 3.68 12 3 12 C-0.42857143 4.71428571 -0.42857143 4.71428571 0 0 Z " fill="#043A74" transform="translate(3,42)"/>
<path d="M0 0 C0 0.33 0 0.66 0 1 C-9.57 1 -19.14 1 -29 1 C-25.35521999 -6.28956002 -6.42553023 -1.29668358 0 0 Z " fill="#FDC761" transform="translate(52,19)"/>
<path d="M0 0 C0.66 0 1.32 0 2 0 C2 0.66 2 1.32 2 2 C3.32 2.66 4.64 3.32 6 4 C5.21625 4.12375 4.4325 4.2475 3.625 4.375 C0.85942178 4.79117993 0.85942178 4.79117993 -1 7 C-4.125 7.125 -4.125 7.125 -7 7 C-7.33 7.66 -7.66 8.32 -8 9 C-9.875 8.75 -9.875 8.75 -12 8 C-13.25 5.9375 -13.25 5.9375 -14 4 C-13.01 4 -12.02 4 -11 4 C-10.34 3.34 -9.68 2.68 -9 2 C-9 2.66 -9 3.32 -9 4 C-5.56769552 3.73606499 -5.56769552 3.73606499 -2 3 C-1.34 2.01 -0.68 1.02 0 0 Z " fill="#E6CA94" transform="translate(31,42)"/>
<path d="M0 0 C0 2.97 0 5.94 0 9 C-0.99 9 -1.98 9 -3 9 C-2.67 7.68 -2.34 6.36 -2 5 C-2.66 4.67 -3.32 4.34 -4 4 C-4.33 5.98 -4.66 7.96 -5 10 C-7.31 10 -9.62 10 -12 10 C-11.34 9.67 -10.68 9.34 -10 9 C-9.62690101 7.34178227 -9.29299023 5.67422986 -9 4 C-8 3 -8 3 -5.4375 2.9375 C-4.2309375 2.9684375 -4.2309375 2.9684375 -3 3 C-3 2.34 -3 1.68 -3 1 C-1 0 -1 0 0 0 Z " fill="#824A38" transform="translate(43,35)"/>
<path d="M0 0 C0.33 0 0.66 0 1 0 C1 1.65 1 3.3 1 5 C1.66 5 2.32 5 3 5 C3.33 3.68 3.66 2.36 4 1 C4 1.66 4 2.32 4 3 C5.65 2.34 7.3 1.68 9 1 C9.33 2.32 9.66 3.64 10 5 C9.67 4.34 9.34 3.68 9 3 C7.35 3.66 5.7 4.32 4 5 C4 6.32 4 7.64 4 9 C5.32 9.33 6.64 9.66 8 10 C7.01 10 6.02 10 5 10 C5.33 10.99 5.66 11.98 6 13 C4.02 12.34 2.04 11.68 0 11 C0 10.34 0 9.68 0 9 C0.66 9 1.32 9 2 9 C1.34 8.34 0.68 7.68 0 7 C-0.99 7.495 -0.99 7.495 -2 8 C-1.34 5.36 -0.68 2.72 0 0 Z " fill="#717B56" transform="translate(59,41)"/>
<path d="M0 0 C1 2 1 2 1 6 C4.465 5.505 4.465 5.505 8 5 C8.33 8.63 8.66 12.26 9 16 C1.125 10.375 1.125 10.375 0 7 C-0.66 7 -1.32 7 -2 7 C-1.125 1.125 -1.125 1.125 0 0 Z " fill="#2B5564" transform="translate(47,7)"/>
<path d="M0 0 C1.4540625 0.0309375 1.4540625 0.0309375 2.9375 0.0625 C3.625 2.375 3.625 2.375 3.9375 5.0625 C2.75 6.9375 2.75 6.9375 0.9375 8.0625 C-1.19995922 7.81103421 -2.52175779 7.60324221 -4.0625 6.0625 C-4.1875 3.5625 -4.1875 3.5625 -4.0625 1.0625 C-3.0625 0.0625 -3.0625 0.0625 0 0 Z " fill="#AA8C45" transform="translate(39.0625,3.9375)"/>
<path d="M0 0 C1.85776765 3.13498292 2.20140476 5.37471432 2 9 C-1.67420866 8.69381595 -2.78135513 8.24228216 -5.3125 5.4375 C-5.869375 4.633125 -6.42625 3.82875 -7 3 C-3.375 0 -3.375 0 0 0 Z " fill="#063C72" transform="translate(23,6)"/>
<path d="M0 0 C0.268125 0.556875 0.53625 1.11375 0.8125 1.6875 C2.00329541 4.09821537 2.00329541 4.09821537 3.6875 6.625 C4.120625 7.40875 4.55375 8.1925 5 9 C4.67 9.66 4.34 10.32 4 11 C3.67 10.67 3.34 10.34 3 10 C2.67 10.66 2.34 11.32 2 12 C1.34 12 0.68 12 0 12 C0 11.34 0 10.68 0 10 C-1.98 10.99 -3.96 11.98 -6 13 C-5.67 12.01 -5.34 11.02 -5 10 C-4.34 9.67 -3.68 9.34 -3 9 C-3 7.68 -3 6.36 -3 5 C-2.34 4.67 -1.68 4.34 -1 4 C-0.34786708 1.97536745 -0.34786708 1.97536745 0 0 Z " fill="#607259" transform="translate(15,41)"/>
<path d="M0 0 C3.96 0 7.92 0 12 0 C11.67 1.32 11.34 2.64 11 4 C10.443125 3.79375 9.88625 3.5875 9.3125 3.375 C6.29241325 2.8852562 4.70577949 3.64711026 2 5 C1.34 5.66 0.68 6.32 0 7 C-0.99 5.68 -1.98 4.36 -3 3 C-2.01 3 -1.02 3 0 3 C0 2.01 0 1.02 0 0 Z " fill="#C8BA69" transform="translate(23,48)"/>
<path d="M0 0 C0.66 0 1.32 0 2 0 C3.64826111 2.96687001 4.44271087 5.65626525 5 9 C3.02 10.32 1.04 11.64 -1 13 C-1 12.01 -1 11.02 -1 10 C-1.66 10 -2.32 10 -3 10 C-6 6.53846154 -6 6.53846154 -6 4 C-5.34 4 -4.68 4 -4 4 C-3 5 -2 6 -1 7 C-0.34 7 0.32 7 1 7 C0.67 4.69 0.34 2.38 0 0 Z " fill="#747650" transform="translate(23,7)"/>
<path d="M0 0 C0.556875 0.2475 1.11375 0.495 1.6875 0.75 C0.615 1.348125 -0.4575 1.94625 -1.5625 2.5625 C-3.68487121 3.76917073 -5.60437447 4.96890586 -7.5625 6.4375 C-9.3125 7.75 -9.3125 7.75 -12.3125 8.75 C-12.6425 9.74 -12.9725 10.73 -13.3125 11.75 C-15.375 12.9375 -15.375 12.9375 -17.3125 13.75 C-16.18798273 10.7780615 -15.08956209 8.41559313 -13.3125 5.75 C-11.3125 5.08333333 -9.3125 4.41666667 -7.3125 3.75 C-6.44625 3.028125 -5.58 2.30625 -4.6875 1.5625 C-2.3125 -0.25 -2.3125 -0.25 0 0 Z " fill="#8C5742" transform="translate(34.3125,23.25)"/>
<path d="M0 0 C3.63 0 7.26 0 11 0 C10.67 1.65 10.34 3.3 10 5 C6.7 4.34 3.4 3.68 0 3 C0 2.01 0 1.02 0 0 Z " fill="#A2AC5F" transform="translate(41,48)"/>
<path d="M0 0 C3.3 0 6.6 0 10 0 C8.515 1.485 8.515 1.485 7 3 C6.34 3 5.68 3 5 3 C4.67 3.99 4.34 4.98 4 6 C2.68 5.34 1.36 4.68 0 4 C0 2.68 0 1.36 0 0 Z " fill="#FBE8C9" transform="translate(16,41)"/>
<path d="M0 0 C0.598125 0.20625 1.19625 0.4125 1.8125 0.625 C1.4825 2.605 1.1525 4.585 0.8125 6.625 C-1.4975 6.625 -3.8075 6.625 -6.1875 6.625 C-5.5275 5.635 -4.8675 4.645 -4.1875 3.625 C-4.5175 2.965 -4.8475 2.305 -5.1875 1.625 C-2.1875 -0.375 -2.1875 -0.375 0 0 Z " fill="#9B6957" transform="translate(55.1875,38.375)"/>
<path d="M0 0 C0.99 0 1.98 0 3 0 C3 4.29 3 8.58 3 13 C2.01 13.495 2.01 13.495 1 14 C0.04738513 9.23692563 -0.08333357 4.8333472 0 0 Z " fill="#FCF2DE" transform="translate(56,31)"/>
<path d="M0 0 C0.66 0 1.32 0 2 0 C2 0.99 2 1.98 2 3 C2.99 3 3.98 3 5 3 C5.33 3.99 5.66 4.98 6 6 C5.01 7.485 5.01 7.485 4 9 C3.54605448 11.27912938 3.54605448 11.27912938 3.375 13.6875 C3.30023438 14.49574219 3.22546875 15.30398437 3.1484375 16.13671875 C3.09945312 16.75160156 3.05046875 17.36648437 3 18 C2.67 18 2.34 18 2 18 C1.34 12.06 0.68 6.12 0 0 Z " fill="#114B6A" transform="translate(58,23)"/>
<path d="M0 0 C-0.5859375 6.15234375 -0.5859375 6.15234375 -1 8 C-1.99 8.495 -1.99 8.495 -3 9 C-3.12375 8.071875 -3.12375 8.071875 -3.25 7.125 C-3.81258459 4.81562433 -3.81258459 4.81562433 -6.0625 3.75 C-6.701875 3.5025 -7.34125 3.255 -8 3 C-2.25 0 -2.25 0 0 0 Z " fill="#9B8549" transform="translate(20,55)"/>
<path d="M0 0 C2.06242617 -0.02717692 4.12495703 -0.0464758 6.1875 -0.0625 C7.33605469 -0.07410156 8.48460937 -0.08570312 9.66796875 -0.09765625 C12.59300586 -0.01192832 15.16316291 0.32150977 18 1 C18 1.33 18 1.66 18 2 C9.585 2.495 9.585 2.495 1 3 C0.67 2.01 0.34 1.02 0 0 Z " fill="#FCD07E" transform="translate(37,21)"/>
<path d="M0 0 C0.66 0 1.32 0 2 0 C2.33 1.98 2.66 3.96 3 6 C3.33 5.34 3.66 4.68 4 4 C4.66 4 5.32 4 6 4 C4.95125002 6.62187494 4.35068687 7.79371361 1.875 9.25 C1.25625 9.4975 0.6375 9.745 0 10 C-0.54372951 6.94152152 -1 4.11227195 -1 1 C-0.67 0.67 -0.34 0.34 0 0 Z " fill="#9C854A" transform="translate(55,9)"/>
<path d="M0 0 C2.31 0 4.62 0 7 0 C7 4.22528092 6.74375671 5.04518508 4 8 C3.34 8 2.68 8 2 8 C2.33 6.02 2.66 4.04 3 2 C2.01 2 1.02 2 0 2 C0 1.34 0 0.68 0 0 Z " fill="#9C8649" transform="translate(60,24)"/>
<path d="M0 0 C2.475 0.495 2.475 0.495 5 1 C4.42415568 3.38564077 3.77772405 5.66682784 3 8 C2.34 8 1.68 8 1 8 C0.67 5.36 0.34 2.72 0 0 Z " fill="#97834B" transform="translate(42,61)"/>
<path d="M0 0 C0.99 0 1.98 0 3 0 C3.33 0.66 3.66 1.32 4 2 C4.99 2.66 5.98 3.32 7 4 C6.01 4.33 5.02 4.66 4 5 C4 5.66 4 6.32 4 7 C2.0625 6.25 2.0625 6.25 0 5 C-0.8125 2.9375 -0.8125 2.9375 -1 1 C-0.67 0.67 -0.34 0.34 0 0 Z " fill="#A18847" transform="translate(56,54)"/>
<path d="M0 0 C1.32 0.33 2.64 0.66 4 1 C3.67 3.64 3.34 6.28 3 9 C2.34 8.67 1.68 8.34 1 8 C1 6.35 1 4.7 1 3 C0.34 4.32 -0.32 5.64 -1 7 C-2 4 -2 4 -1.0625 1.8125 C-0.5365625 0.9153125 -0.5365625 0.9153125 0 0 Z " fill="#AB8D45" transform="translate(46,5)"/>
<path d="M0 0 C0.33 0.66 0.66 1.32 1 2 C1.99 2.33 2.98 2.66 4 3 C3.34 3 2.68 3 2 3 C2 4.32 2 5.64 2 7 C0.125 6.75 0.125 6.75 -2 6 C-3.25 3.9375 -3.25 3.9375 -4 2 C-3.01 2 -2.02 2 -1 2 C-0.67 1.34 -0.34 0.68 0 0 Z " fill="#F8D795" transform="translate(21,44)"/>
<path d="M0 0 C1 3.875 1 3.875 1 5 C3.97 5.495 3.97 5.495 7 6 C7 6.33 7 6.66 7 7 C3.7 7.33 0.4 7.66 -3 8 C-2.45276317 4.62537285 -1.9451 2.91765 0 0 Z " fill="#DBC993" transform="translate(19,22)"/>
<path d="M0 0 C2.875 -0.125 2.875 -0.125 6 0 C6.66 0.66 7.32 1.32 8 2 C6.68 2 5.36 2 4 2 C4 3.65 4 5.3 4 7 C3.34 7 2.68 7 2 7 C0.5393715 4.35261084 0 3.10551666 0 0 Z " fill="#AE8F44" transform="translate(11,17)"/>
<path d="M0 0 C4.75 1.875 4.75 1.875 7 3 C7 3.66 7 4.32 7 5 C5.02 5 3.04 5 1 5 C0.67 5.99 0.34 6.98 0 8 C0 5.36 0 2.72 0 0 Z " fill="#B09043" transform="translate(50,59)"/>
<path d="M0 0 C0.33 0.99 0.66 1.98 1 3 C0.67 3.66 0.34 4.32 0 5 C-2.31 5 -4.62 5 -7 5 C-6.34 4.67 -5.68 4.34 -5 4 C-4.67 3.01 -4.34 2.02 -4 1 C-1.9375 0.3125 -1.9375 0.3125 0 0 Z " fill="#9E6D59" transform="translate(38,40)"/>
<path d="M0 0 C-0.49831724 3.68754757 -1.10067643 5.60490662 -4 8 C-4.33 6.02 -4.66 4.04 -5 2 C-2 0 -2 0 0 0 Z " fill="#F2E6CB" transform="translate(20,29)"/>
<path d="M0 0 C2.64 0 5.28 0 8 0 C7.67 0.99 7.34 1.98 7 3 C4.69 3 2.38 3 0 3 C0 2.01 0 1.02 0 0 Z " fill="#FDDDA1" transform="translate(20,25)"/>
<path d="M0 0 C1.98 0.495 1.98 0.495 4 1 C3.01 1 2.02 1 1 1 C1 1.66 1 2.32 1 3 C1.66 3 2.32 3 3 3 C3 4.65 3 6.3 3 8 C1.68 8 0.36 8 -1 8 C-0.67 5.36 -0.34 2.72 0 0 Z " fill="#A08748" transform="translate(31,62)"/>
<path d="M0 0 C1.98 0.99 3.96 1.98 6 3 C5.360625 3.61875 4.72125 4.2375 4.0625 4.875 C1.96116416 6.82597612 1.96116416 6.82597612 1 9 C0.34 9 -0.32 9 -1 9 C-0.67 6.03 -0.34 3.06 0 0 Z " fill="#9B8549" transform="translate(23,58)"/>
<path d="M0 0 C0.66 0.33 1.32 0.66 2 1 C2 1.66 2 2.32 2 3 C3.32 3.33 4.64 3.66 6 4 C5.01 4 4.02 4 3 4 C3.33 4.99 3.66 5.98 4 7 C2.02 6.34 0.04 5.68 -2 5 C-2 4.34 -2 3.68 -2 3 C-1.34 3 -0.68 3 0 3 C0 2.01 0 1.02 0 0 Z " fill="#B19043" transform="translate(61,47)"/>
<path d="M0 0 C2.97 0.495 2.97 0.495 6 1 C6.33 2.32 6.66 3.64 7 5 C5.35 5 3.7 5 2 5 C1.34 3.35 0.68 1.7 0 0 Z " fill="#F0D69F" transform="translate(52,25)"/>
<path d="M0 0 C1.32 0.66 2.64 1.32 4 2 C2.6875 4 2.6875 4 1 6 C0.01 6 -0.98 6 -2 6 C-1.125 1.125 -1.125 1.125 0 0 Z " fill="#F7DFB8" transform="translate(48,40)"/>
<path d="M0 0 C1.98 0.495 1.98 0.495 4 1 C3.67 2.32 3.34 3.64 3 5 C1.68 4.67 0.36 4.34 -1 4 C-0.67 2.68 -0.34 1.36 0 0 Z " fill="#093C73" transform="translate(37,5)"/>
<path d="M0 0 C1 2 1 2 1 6 C1.66 6.33 2.32 6.66 3 7 C3 7.99 3 8.98 3 10 C2.01 9.67 1.02 9.34 0 9 C0 8.34 0 7.68 0 7 C-0.66 7 -1.32 7 -2 7 C-1.125 1.125 -1.125 1.125 0 0 Z " fill="#1D4A69" transform="translate(47,7)"/>
<path d="M0 0 C0.66 0.33 1.32 0.66 2 1 C2 1.66 2 2.32 2 3 C2.66 3 3.32 3 4 3 C4 3.66 4 4.32 4 5 C-0.29 4.34 -4.58 3.68 -9 3 C-9 2.67 -9 2.34 -9 2 C-6.03 2 -3.06 2 0 2 C0 1.34 0 0.68 0 0 Z " fill="#2E6353" transform="translate(43,11)"/>
<path d="M0 0 C0.66 0.33 1.32 0.66 2 1 C2 1.66 2 2.32 2 3 C1.34 3 0.68 3 0 3 C0 3.99 0 4.98 0 6 C-1.32 6.33 -2.64 6.66 -4 7 C-2.92598892 4.08482708 -2.22189824 2.22189824 0 0 Z " fill="#0B3D73" transform="translate(59,47)"/>
<path d="M0 0 C0.66 0.66 1.32 1.32 2 2 C1.625 4.125 1.625 4.125 1 6 C1 5.01 1 4.02 1 3 C-0.65 3.66 -2.3 4.32 -4 5 C-4.66 4.34 -5.32 3.68 -6 3 C-4.02 2.01 -2.04 1.02 0 0 Z " fill="#8B5645" transform="translate(54,35)"/>
<path d="M0 0 C2.31 0 4.62 0 7 0 C6.67 1.32 6.34 2.64 6 4 C4.35 3.67 2.7 3.34 1 3 C0.67 2.01 0.34 1.02 0 0 Z " fill="#97A85C" transform="translate(28,48)"/>
<path d="M0 0 C1.32 0 2.64 0 4 0 C4 1.65 4 3.3 4 5 C3.01 5 2.02 5 1 5 C0.67 3.35 0.34 1.7 0 0 Z " fill="#C5BE74" transform="translate(34,47)"/>
<path d="M0 0 C2.31 0 4.62 0 7 0 C6.01 0.495 6.01 0.495 5 1 C4.67 1.99 4.34 2.98 4 4 C2.68 3.34 1.36 2.68 0 2 C0 1.34 0 0.68 0 0 Z " fill="#FAE1B1" transform="translate(16,43)"/>
<path d="M0 0 C0.99 0.33 1.98 0.66 3 1 C2.67 1.66 2.34 2.32 2 3 C2.66 3 3.32 3 4 3 C4 3.66 4 4.32 4 5 C3.34 5 2.68 5 2 5 C1.67 5.99 1.34 6.98 1 8 C0.67 5.36 0.34 2.72 0 0 Z " fill="#A98C45" transform="translate(29,4)"/>
</svg>
